# xmcd CD database file
# Copyright (C) 1993-1998 Ti Kan
# 
# Track frame offsets:
#     150
#     10132
#     21022
#     32757
#     45415
#     57517
#     67405
#     77700
#     88192
#     100655
#     112520
#     122142
#     133225
#     141550
#     149100
#     158975
#     168527
#     177440
#     185650
#     197597
# 
# Disc length: 2764 seconds
# 
# Revision: 1
# Processed by: cddbd v1.4b41PL1 Copyright (c) Steve Scherf et al.
# Submitted via: DiscPlay 4.0.4
# 
DISCID=270aca14
DTITLE=Johnny CASH - The Man In Black [CD1]
DYEAR=1900
DGENRE=
TTITLE0=Hey Porter
TTITLE1=Cry! Cry! Cry!
TTITLE2=So Doggone Lonesome
TTITLE3=Folsom Prison Blues
TTITLE4=I Walk The Line
TTITLE5=Get Rhythm
TTITLE6=There You Go
TTITLE7=Train Of Love
TTITLE8=Next In Line
TTITLE9=Home Of The Blues
TTITLE10=Ballad Of A Teenage Queen
TTITLE11=Big River
TTITLE12=Guess Things Happen That Way
TTITLE13=Come In Stranger
TTITLE14=The Ways Of A Woman In Love
TTITLE15=Rock Island Line
TTITLE16=Two Timin' Woman
TTITLE17=The Wreck Of The Old '97
TTITLE18=You're The Nearest Thing To Heaven
TTITLE19=Straight A's In Love
EXTD=
EXTT0=
EXTT1=
EXTT2=
EXTT3=
EXTT4=
EXTT5=
EXTT6=
EXTT7=
EXTT8=
EXTT9=
EXTT10=
EXTT11=
EXTT12=
EXTT13=
EXTT14=
EXTT15=
EXTT16=
EXTT17=
EXTT18=
EXTT19=
PLAYORDER=
